<svg height="480pt" viewBox="-24 0 480 480" width="480pt" xmlns="http://www.w3.org/2000/svg"><path d="m88 320v-144c.027344-8.824219 7.175781-15.972656 16-16h272v-136c-.027344-8.824219-7.175781-15.972656-16-16h-248v80c0 8.835938-7.164062 16-16 16h-88v352c.027344 8.824219 7.175781 15.972656 16 16h336c8.824219-.027344 15.972656-7.175781 16-16v-120h-272c-8.824219-.027344-15.972656-7.175781-16-16zm0 0" fill="#9bc9ff"/><g fill="#1e81ce"><path d="m408 152h-24v-128c0-13.253906-10.746094-24-24-24h-248c-.167969 0-.3125.078125-.480469.0898438-.644531.0429682-1.285156.1640622-1.902343.3593752-.257813.078125-.503907.136719-.753907.238281-.839843.347656-1.617187.832031-2.296875 1.441406l-104 96c-.710937.683594-1.285156 1.5-1.695312 2.398438-.117188.261718-.21875.527344-.304688.800781-.261718.714844-.417968 1.464844-.460937 2.222656 0 .167969-.105469.320313-.105469.488281v351.960938c0 13.253906 10.746094 24 24 24h336c13.253906 0 24-10.746094 24-24v-112h24c13.253906 0 24-10.746094 24-24v-144c0-13.253906-10.746094-24-24-24zm-304-125.726562v61.726562c0 4.417969-3.582031 8-8 8h-67.535156zm264 429.726562c0 4.417969-3.582031 8-8 8h-336c-4.417969 0-8-3.582031-8-8v-344h80c13.253906 0 24-10.746094 24-24v-72h240c4.417969 0 8 3.582031 8 8v128h-264c-13.253906 0-24 10.746094-24 24v144c0 13.253906 10.746094 24 24 24h264zm48-136c0 4.417969-3.582031 8-8 8h-304c-4.417969 0-8-3.582031-8-8v-144c0-4.417969 3.582031-8 8-8h304c4.417969 0 8 3.582031 8 8zm0 0"/><path d="m292.441406 193.34375c-3.675781-2.453125-8.644531-1.460938-11.097656 2.214844l-25.34375 38.042968-25.34375-38.015624c-2.453125-3.679688-7.421875-4.671876-11.097656-2.21875-3.675782 2.453124-4.667969 7.421874-2.214844 11.097656l29.054688 43.535156-29.039063 43.558594c-2.453125 3.675781-1.460937 8.644531 2.214844 11.097656 3.679687 2.453125 8.644531 1.460938 11.097656-2.214844l25.328125-38.042968 25.34375 38.015624c2.453125 3.679688 7.421875 4.671876 11.097656 2.21875 3.675782-2.453124 4.667969-7.421874 2.214844-11.097656l-29.054688-43.535156 29.039063-43.558594c2.457031-3.671875 1.46875-8.640625-2.199219-11.097656zm0 0"/><path d="m384 192h-64c-4.417969 0-8 3.582031-8 8s3.582031 8 8 8h24v88c0 4.417969 3.582031 8 8 8s8-3.582031 8-8v-88h24c4.417969 0 8-3.582031 8-8s-3.582031-8-8-8zm0 0"/><path d="m192 192h-64c-4.417969 0-8 3.582031-8 8s3.582031 8 8 8h24v88c0 4.417969 3.582031 8 8 8s8-3.582031 8-8v-88h24c4.417969 0 8-3.582031 8-8s-3.582031-8-8-8zm0 0"/></g></svg>